<svg width="733" height="468" viewBox="0 0 733 468" fill="none" xmlns="http://www.w3.org/2000/svg">
<path d="M0 468H733V1.26958e-05H0V468Z" fill="white"/>
<path d="M668.108 320.053C668.799 322.433 669.344 324.867 669.737 327.336L670.702 327.195C670.304 324.689 669.749 322.218 669.048 319.803L668.108 320.053ZM670.438 334.751C670.458 335.343 670.468 335.935 670.468 336.527C670.468 338.408 670.375 340.297 670.187 342.19L671.159 342.279C671.352 340.355 671.445 338.436 671.445 336.527C671.445 335.926 671.435 335.324 671.416 334.723L670.438 334.751ZM668.97 349.54C668.413 351.931 667.692 354.316 666.8 356.686L667.721 357.002C668.626 354.597 669.356 352.175 669.925 349.746L668.97 349.54ZM663.722 363.517C662.573 365.686 661.271 367.832 659.803 369.942L660.616 370.459C662.104 368.321 663.429 366.142 664.594 363.94L663.722 363.517ZM655.136 375.895C653.509 377.748 651.74 379.564 649.824 381.338L650.503 382.012C652.443 380.217 654.234 378.376 655.884 376.499L655.136 375.895ZM643.977 386.254C642.003 387.764 639.909 389.233 637.688 390.654L638.23 391.433C640.473 389.996 642.592 388.512 644.586 386.987L643.977 386.254ZM631.045 394.557C628.841 395.745 626.534 396.892 624.123 397.994L624.543 398.839C626.974 397.73 629.303 396.571 631.523 395.373L631.045 394.557ZM616.978 400.999C614.628 401.907 612.189 402.775 609.661 403.603L609.976 404.488C612.522 403.657 614.977 402.782 617.342 401.865L616.978 400.999ZM602.211 405.843C599.767 406.516 597.251 407.153 594.656 407.75L594.883 408.66C597.493 408.059 600.024 407.42 602.48 406.743L602.211 405.843ZM587.021 409.353C584.521 409.828 581.958 410.27 579.327 410.675L579.483 411.599C582.124 411.192 584.699 410.747 587.211 410.27L587.021 409.353ZM571.589 411.744C569.055 412.053 566.462 412.331 563.816 412.579L563.909 413.511C566.567 413.263 569.167 412.984 571.711 412.673L571.589 411.744ZM556.02 413.197C553.466 413.366 550.862 413.506 548.208 413.616L548.25 414.552C550.913 414.442 553.525 414.299 556.088 414.131L556.02 413.197ZM540.385 413.855C538.059 413.897 535.694 413.92 533.292 413.92C533.047 413.92 532.803 413.92 532.556 413.92L532.554 414.856C532.801 414.856 533.047 414.856 533.292 414.856C535.701 414.856 538.071 414.833 540.404 414.788L540.385 413.855ZM524.728 413.827C522.16 413.773 519.55 413.693 516.902 413.588L516.86 414.524C519.516 414.629 522.131 414.709 524.706 414.763L524.728 413.827ZM509.081 413.211C506.513 413.066 503.908 412.898 501.267 412.703L501.194 413.637C503.84 413.831 506.449 414 509.022 414.145L509.081 413.211ZM493.463 412.076C490.897 411.852 488.3 411.606 485.669 411.337L485.566 412.268C488.2 412.537 490.805 412.783 493.373 413.01L493.463 412.076ZM477.887 410.49C475.326 410.193 472.736 409.877 470.117 409.54L469.985 410.469C472.612 410.806 475.204 411.122 477.769 411.419L477.887 410.49ZM462.359 408.496C459.806 408.138 457.223 407.759 454.614 407.361L454.462 408.285C457.074 408.683 459.659 409.062 462.218 409.423L462.359 408.496ZM446.886 406.142C444.34 405.726 441.767 405.293 439.17 404.841L438.994 405.761C441.596 406.215 444.171 406.647 446.72 407.064L446.886 406.142ZM431.468 403.46C428.93 402.995 426.369 402.51 423.782 402.007L423.589 402.925C426.176 403.428 428.741 403.912 431.283 404.38L431.468 403.46ZM416.109 400.484C413.581 399.971 411.027 399.44 408.452 398.893L408.24 399.808C410.82 400.355 413.373 400.886 415.907 401.401L416.109 400.484ZM400.809 397.238C398.288 396.681 395.744 396.11 393.181 395.523L392.954 396.433C395.52 397.021 398.065 397.594 400.589 398.151L400.809 397.238ZM385.568 393.747C383.056 393.15 380.522 392.54 377.969 391.915L377.727 392.82C380.283 393.448 382.817 394.058 385.333 394.655L385.568 393.747ZM370.385 390.026C369.652 389.842 368.916 389.657 368.181 389.47C366.375 389.009 364.577 388.569 362.786 388.147L362.552 389.055C364.338 389.477 366.131 389.914 367.929 390.373C368.665 390.56 369.4 390.747 370.136 390.932L370.385 390.026ZM355.136 386.451C352.558 385.915 349.993 385.414 347.44 384.951L347.259 385.871C349.802 386.334 352.358 386.83 354.928 387.366L355.136 386.451ZM339.699 383.648C337.095 383.243 334.502 382.875 331.927 382.543L331.795 383.47C334.363 383.802 336.945 384.169 339.543 384.572L339.699 383.648ZM324.125 381.633C321.504 381.361 318.894 381.123 316.304 380.919L316.224 381.85C318.806 382.056 321.406 382.293 324.02 382.564L324.125 381.633ZM308.466 380.395C305.832 380.252 303.215 380.14 300.618 380.06L300.586 380.996C303.176 381.076 305.783 381.186 308.41 381.331L308.466 380.395ZM292.763 379.908C291.849 379.901 290.937 379.899 290.029 379.899C288.313 379.899 286.608 379.911 284.912 379.934L284.927 380.87C286.618 380.847 288.318 380.835 290.029 380.835C290.935 380.835 291.844 380.837 292.755 380.844L292.763 379.908ZM277.064 380.133C274.428 380.229 271.814 380.351 269.221 380.496L269.28 381.432C271.865 381.284 274.472 381.163 277.101 381.069L277.064 380.133ZM261.39 381.017C258.759 381.216 256.152 381.441 253.572 381.687L253.667 382.618C256.242 382.372 258.844 382.15 261.468 381.949L261.39 381.017ZM245.768 382.494C243.144 382.789 240.548 383.102 237.98 383.432L238.109 384.359C240.673 384.029 243.263 383.718 245.88 383.423L245.768 382.494ZM230.209 384.485C227.593 384.86 225.008 385.248 222.455 385.646L222.612 386.57C225.161 386.172 227.742 385.784 230.353 385.412L230.209 384.485ZM214.718 386.898C212.108 387.333 209.533 387.775 206.995 388.222L207.171 389.144C209.707 388.697 212.279 388.255 214.886 387.82L214.718 386.898ZM199.284 389.605C196.674 390.083 194.107 390.558 191.582 391.026L191.768 391.945C194.292 391.475 196.859 391 199.467 390.525L199.284 389.605ZM183.884 392.455C181.266 392.94 178.699 393.412 176.184 393.864L176.364 394.784C178.882 394.332 181.451 393.859 184.069 393.375L183.884 392.455ZM168.475 395.214C165.836 395.661 163.261 396.078 160.751 396.454L160.903 397.379C163.42 397 166.001 396.583 168.645 396.136L168.475 395.214ZM153.003 397.514C150.325 397.84 147.732 398.104 145.229 398.298L145.307 399.232C147.828 399.035 150.435 398.771 153.126 398.443L153.003 397.514ZM137.433 398.661C137.078 398.666 136.725 398.666 136.375 398.666C134.037 398.666 131.796 398.577 129.654 398.385L129.563 399.319C131.74 399.513 134.011 399.602 136.375 399.602C136.729 399.602 137.086 399.602 137.445 399.597L137.433 398.661ZM122.011 397.149C119.415 396.508 117.011 395.647 114.805 394.536L114.35 395.366C116.632 396.513 119.107 397.4 121.766 398.057L122.011 397.149ZM108.581 390.246C106.807 388.606 105.224 386.692 103.834 384.462L102.995 384.942C104.426 387.237 106.064 389.222 107.902 390.92L108.581 390.246ZM100.587 377.741C99.6924 375.378 98.8805 373.01 98.1502 370.635L97.2127 370.902C97.9489 373.293 98.7669 375.68 99.6687 378.062L100.587 377.741ZM96.1752 363.4C95.5925 360.957 95.0928 358.509 94.6741 356.061L93.7097 356.211C94.1314 358.68 94.6352 361.146 95.2226 363.608L96.1752 363.4ZM93.6515 348.646C93.3898 346.158 93.2095 343.671 93.1079 341.186L92.1313 341.221C92.2337 343.727 92.4157 346.233 92.6793 348.739L93.6515 348.646ZM93.038 333.705C93.0927 331.213 93.2247 328.725 93.4316 326.24L92.4575 326.166C92.2488 328.667 92.1159 331.175 92.0609 333.686L93.038 333.705ZM94.2743 318.816C94.6279 316.352 95.0535 313.897 95.5493 311.449L94.5898 311.271C94.0908 313.735 93.662 316.206 93.306 318.687L94.2743 318.816ZM97.2374 304.165C97.8672 301.75 98.5641 299.344 99.3257 296.955L98.3909 296.682C97.6244 299.087 96.9231 301.507 96.2893 303.938L97.2374 304.165ZM101.791 289.853C102.67 287.511 103.612 285.185 104.612 282.873L103.709 282.515C102.703 284.839 101.756 287.181 100.871 289.535L101.791 289.853ZM107.771 276.026C108.875 273.773 110.035 271.536 111.249 269.32L110.383 268.885C109.163 271.112 107.997 273.361 106.887 275.629L107.771 276.026ZM115.028 262.763C116.332 260.608 117.687 258.476 119.091 256.363L118.266 255.86C116.855 257.983 115.493 260.128 114.182 262.293L115.028 262.763ZM123.41 250.144C124.89 248.101 126.416 246.084 127.985 244.09L127.204 243.526C125.628 245.529 124.095 247.558 122.607 249.61L123.41 250.144ZM132.801 238.205C134.443 236.274 136.125 234.372 137.847 232.495L137.113 231.878C135.383 233.764 133.693 235.675 132.043 237.613L132.801 238.205ZM143.113 226.968C144.902 225.157 146.728 223.376 148.588 221.626L147.903 220.957C146.034 222.716 144.2 224.507 142.403 226.325L143.113 226.968ZM154.264 216.471C156.188 214.786 158.145 213.134 160.132 211.515L159.499 210.804C157.503 212.427 155.537 214.089 153.605 215.781L154.264 216.471ZM166.184 206.76C168.233 205.211 170.309 203.695 172.413 202.216L171.835 201.462C169.722 202.946 167.635 204.469 165.578 206.028L166.184 206.76ZM178.811 197.887C180.974 196.478 183.162 195.109 185.372 193.782L184.853 192.989C182.632 194.323 180.435 195.699 178.262 197.112L178.811 197.887ZM192.089 189.91C194.357 188.658 196.646 187.448 198.954 186.28L198.498 185.452C196.179 186.624 193.879 187.841 191.6 189.1L192.089 189.91ZM205.961 182.906C208.317 181.825 210.691 180.791 213.08 179.803L212.694 178.944C210.293 179.937 207.907 180.976 205.539 182.061L205.961 182.906ZM220.323 176.979C222.764 176.083 225.217 175.236 227.681 174.442L227.37 173.555C224.893 174.353 222.426 175.203 219.974 176.104L220.323 176.979ZM235.144 172.212C237.655 171.517 240.175 170.881 242.702 170.298L242.474 169.388C239.932 169.973 237.398 170.614 234.874 171.311L235.144 172.212ZM250.342 168.719C252.907 168.248 255.477 167.839 258.05 167.49L257.913 166.563C255.326 166.914 252.738 167.326 250.158 167.799L250.342 168.719ZM265.83 166.629C268.432 166.404 271.034 166.243 273.636 166.149L273.6 165.216C270.98 165.309 268.361 165.471 265.742 165.695L265.83 166.629ZM281.448 166.072C284.055 166.117 286.657 166.226 289.252 166.409L289.322 165.475C286.711 165.293 284.089 165.181 281.465 165.138L281.448 166.072ZM297.021 167.172C299.599 167.499 302.17 167.897 304.728 168.372L304.913 167.453C302.336 166.975 299.746 166.573 297.148 166.245L297.021 167.172ZM312.344 170.013C314.855 170.63 317.355 171.325 319.837 172.095L320.138 171.206C317.636 170.429 315.117 169.73 312.585 169.105L312.344 170.013ZM327.179 174.62C329.589 175.53 331.978 176.515 334.351 177.58L334.766 176.731C332.376 175.659 329.965 174.667 327.539 173.75L327.179 174.62ZM341.314 180.959C343.582 182.143 345.827 183.404 348.05 184.741L348.571 183.947C346.33 182.602 344.068 181.331 341.783 180.138L341.314 180.959ZM354.537 188.903C356.634 190.338 358.708 191.845 360.758 193.427L361.371 192.697C359.307 191.105 357.218 189.587 355.104 188.143L354.537 188.906V188.903ZM366.703 198.277C367.944 199.347 369.175 200.447 370.395 201.577C371.064 202.197 371.736 202.808 372.408 203.411L373.075 202.731C372.408 202.129 371.741 201.518 371.074 200.903C369.845 199.768 368.606 198.659 367.358 197.583L366.703 198.277ZM378.23 208.447C380.234 210.111 382.245 211.711 384.266 213.253L384.874 212.521C382.865 210.988 380.864 209.395 378.871 207.74L378.23 208.447ZM390.506 217.809C392.646 219.302 394.794 220.732 396.949 222.101L397.489 221.322C395.346 219.96 393.211 218.537 391.082 217.051L390.506 217.809ZM403.582 226.116C405.85 227.422 408.122 228.662 410.402 229.844L410.866 229.02C408.601 227.846 406.341 226.613 404.086 225.316L403.582 226.116ZM417.387 233.275C419.762 234.377 422.142 235.42 424.524 236.405L424.913 235.544C422.54 234.566 420.175 233.53 417.812 232.432L417.387 233.275ZM431.801 239.232C434.263 240.131 436.729 240.973 439.197 241.762L439.507 240.875C437.051 240.089 434.598 239.251 432.15 238.357L431.801 239.232ZM446.693 244.001C449.219 244.703 451.748 245.354 454.274 245.96L454.511 245.052C451.997 244.448 449.481 243.8 446.966 243.1L446.693 244.001ZM461.927 247.654C464.497 248.178 467.065 248.66 469.633 249.102L469.807 248.18C467.248 247.74 464.69 247.261 462.13 246.739L461.927 247.654ZM477.381 250.324C479.981 250.696 482.573 251.033 485.163 251.339L485.283 250.41C482.7 250.104 480.115 249.769 477.528 249.397L477.381 250.324ZM492.967 252.175C495.579 252.427 498.186 252.652 500.786 252.856L500.864 251.922C498.271 251.718 495.672 251.494 493.065 251.243L492.967 252.175ZM508.614 253.406C511.236 253.572 513.848 253.719 516.45 253.855L516.501 252.919C513.904 252.785 511.294 252.636 508.678 252.472L508.614 253.406ZM524.286 254.229C526.912 254.346 529.527 254.456 532.124 254.562L532.165 253.628C529.568 253.52 526.956 253.41 524.332 253.296L524.286 254.229ZM539.96 254.882C542.589 254.992 545.201 255.104 547.793 255.226L547.842 254.29C545.245 254.168 542.633 254.056 540.004 253.948L539.96 254.882ZM555.619 255.629C558.248 255.776 560.853 255.942 563.438 256.129L563.511 255.196C560.921 255.008 558.309 254.842 555.678 254.693L555.619 255.629ZM571.239 256.77C573.858 257.016 576.451 257.29 579.014 257.604L579.138 256.675C576.563 256.361 573.961 256.085 571.332 255.839L571.239 256.77ZM586.752 258.678C589.344 259.085 591.905 259.539 594.431 260.049L594.632 259.134C592.091 258.621 589.518 258.163 586.911 257.753L586.752 258.678ZM602.023 261.78C604.549 262.426 607.039 263.14 609.485 263.929L609.797 263.042C607.33 262.246 604.82 261.528 602.274 260.875L602.023 261.78ZM616.788 266.559C619.177 267.516 621.521 268.559 623.817 269.697L624.267 268.864C621.946 267.717 619.578 266.662 617.164 265.695L616.788 266.559ZM630.558 273.389C632.731 274.702 634.854 276.113 636.928 277.634L637.524 276.89C635.426 275.352 633.278 273.925 631.081 272.596L630.558 273.389ZM642.87 282.412C644.744 284.06 646.57 285.812 648.348 287.677L649.069 287.045C647.273 285.162 645.426 283.39 643.533 281.722L642.87 282.412ZM653.34 293.37C654.889 295.292 656.394 297.311 657.858 299.436L658.674 298.921C657.198 296.777 655.678 294.737 654.115 292.799L653.34 293.37ZM661.919 305.812C662.014 305.976 662.109 306.137 662.204 306.301C663.463 308.456 664.594 310.696 665.586 313.008L666.488 312.652C665.483 310.307 664.335 308.031 663.06 305.843C662.962 305.679 662.867 305.515 662.771 305.354L661.919 305.812Z" fill="#E4E4E4"/>
<path d="M661.019 421.537H88.2823C106.207 294.709 227.572 196.607 374.651 196.607C521.72 196.607 643.095 294.709 661.019 421.537Z" fill="#F6F5F5"/>
<path d="M586.363 420.423H370.939C360.91 420.423 352.778 412.636 352.778 403.03V107.09C352.778 97.4844 360.91 89.6969 370.939 89.6969H586.363C596.391 89.6969 604.522 97.4844 604.522 107.09V403.03C604.522 412.636 596.391 420.423 586.363 420.423Z" fill="#A9BAE6"/>
<path d="M582.735 103.025V391.285H375.531V103.025H582.735Z" fill="#F6F5F5"/>
<path d="M582.735 103.028C582.799 215.432 586.588 351 573.404 381.015C515.336 386.435 447.34 388.173 375.528 388.496L402.825 103.896L582.735 103.028Z" fill="#E4E4E4"/>
<path d="M564.124 371.931C473.613 385.805 413.119 386.538 364.057 383.049C370.417 318.228 372.965 210.549 375.528 103.04L484.596 103.271L583.307 109.512C584.744 221.095 584.902 324.165 564.124 371.931Z" fill="white"/>
<path d="M531.752 147.968L422.75 145.511L423.141 129.61L532.143 132.067L531.752 147.968Z" fill="#708CD5"/>
<path d="M553.156 170.977L454.836 168.761L454.658 176.041L552.978 178.257L553.156 170.977Z" fill="#708CD5"/>
<path d="M521.275 186.138L454.448 184.631L454.267 191.908L521.097 193.415L521.275 186.138Z" fill="#D3DFFF"/>
<path d="M423.307 190.782L400.032 190.258L400.58 167.967L423.857 168.492L423.307 190.782Z" fill="white"/>
<path d="M423.307 190.783L423.327 190.081L400.782 189.573L401.295 168.686L423.107 169.177L422.577 190.766L423.307 190.783L424.04 190.799L424.607 167.806L399.866 167.249L399.282 190.944L424.023 191.501L424.04 190.799L423.307 190.783Z" fill="#708CD5"/>
<path d="M404.374 173.832C405.092 176.466 406.419 187.504 412.19 184.418C413.522 183.706 414.648 181.825 415.645 180.742C417.434 178.797 419.222 176.85 421.013 174.906C424.593 171.014 428.172 167.12 431.749 163.229C432.668 162.232 428.617 159.731 427.466 160.983C424.285 164.441 421.104 167.902 417.922 171.361C416.332 173.09 414.741 174.819 413.148 176.551C412.046 177.751 409.493 181.621 407.853 181.965C408.745 182.242 409.637 182.515 410.526 182.791C411.157 183.285 409.986 179.78 409.962 179.684C409.517 178.058 409.073 176.429 408.628 174.8C408.261 173.457 403.832 171.84 404.374 173.832Z" fill="#EE6F57"/>
<path d="M534.804 211.112L453.842 209.287L453.664 216.567L534.626 218.392L534.804 211.112Z" fill="#708CD5"/>
<path d="M551.771 227.373L453.451 225.157L453.272 232.437L551.592 234.653L551.771 227.373Z" fill="#D3DFFF"/>
<path d="M422.313 231.309L399.038 230.785L399.585 208.494L422.86 209.018L422.313 231.309Z" fill="white"/>
<path d="M422.313 231.309L422.33 230.607L399.788 230.099L400.301 209.212L422.11 209.704L421.58 231.293L422.313 231.309L423.046 231.325L423.61 208.332L398.869 207.776L398.288 231.47L423.029 232.027L423.046 231.325L422.313 231.309Z" fill="#708CD5"/>
<path d="M403.362 214.988C404.081 217.622 405.407 228.66 411.179 225.574C412.51 224.862 413.637 222.981 414.633 221.898C416.422 219.953 418.213 218.006 420.001 216.062C423.581 212.168 427.16 208.276 430.74 204.385C431.656 203.388 427.605 200.887 426.454 202.139C423.273 205.597 420.092 209.058 416.911 212.516C415.32 214.246 413.729 215.975 412.139 217.704C411.034 218.905 408.481 222.777 406.844 223.121C407.733 223.395 408.625 223.671 409.515 223.947C410.145 224.441 408.975 220.936 408.95 220.84C408.506 219.214 408.061 217.585 407.619 215.956C407.25 214.613 402.82 212.996 403.362 214.988Z" fill="#EE6F57"/>
<path d="M551.164 252.032L452.845 249.816L452.666 257.093L550.986 259.309L551.164 252.032Z" fill="#708CD5"/>
<path d="M496.424 266.676L452.454 265.684L452.276 272.963L496.246 273.953L496.424 266.676Z" fill="#D3DFFF"/>
<path d="M421.316 271.836L398.041 271.311L398.588 249.021L421.864 249.545L421.316 271.836Z" fill="white"/>
<path d="M421.316 271.835L421.333 271.136L398.791 270.626L399.304 249.739L421.113 250.23L420.583 271.819L421.316 271.835L422.049 271.852L422.614 248.859L397.872 248.302L397.291 271.997L422.032 272.554L422.049 271.852L421.316 271.835Z" fill="#708CD5"/>
<path d="M402.683 255.802C403.401 258.437 404.728 269.474 410.499 266.388C411.831 265.677 412.957 263.795 413.952 262.712C415.743 260.767 417.531 258.82 419.322 256.876C422.899 252.984 426.479 249.091 430.058 245.199C430.974 244.202 426.926 241.701 425.775 242.953C422.594 246.411 419.41 249.872 416.229 253.331C414.638 255.06 413.048 256.789 411.457 258.521C410.353 259.721 407.802 263.592 406.162 263.936C407.054 264.212 407.944 264.486 408.835 264.762C409.463 265.255 408.295 261.75 408.269 261.654C407.826 260.028 407.382 258.399 406.937 256.771C406.57 255.427 402.138 253.81 402.683 255.802Z" fill="#EE6F57"/>
<path d="M550.168 292.558L451.85 290.342L451.67 297.62L549.989 299.836L550.168 292.558Z" fill="#708CD5"/>
<path d="M529.128 307.963L451.46 306.21L451.281 313.49L528.95 315.24L529.128 307.963Z" fill="#D3DFFF"/>
<path d="M420.322 312.364L397.044 311.838L397.594 289.547L420.869 290.071L420.322 312.364Z" fill="white"/>
<path d="M420.322 312.364L420.339 311.662L397.794 311.152L398.31 290.265L420.119 290.757L419.589 312.348L420.322 312.364L421.055 312.381L421.619 289.385L396.878 288.829L396.294 312.523L421.038 313.083L421.055 312.381L420.322 312.364Z" fill="#708CD5"/>
<path d="M401.694 296.064C402.412 298.699 403.739 309.734 409.51 306.648C410.842 305.936 411.968 304.055 412.962 302.974C414.753 301.027 416.542 299.082 418.333 297.136C421.912 293.244 425.489 289.353 429.069 285.461C429.988 284.464 425.937 281.961 424.786 283.215C421.605 286.673 418.421 290.132 415.24 293.593C413.649 295.322 412.058 297.051 410.468 298.781C409.363 299.981 406.813 303.854 405.173 304.195C406.065 304.471 406.954 304.748 407.846 305.021C408.474 305.517 407.306 302.012 407.279 301.916C406.837 300.287 406.392 298.661 405.948 297.033C405.581 295.687 401.149 294.07 401.694 296.064Z" fill="#EE6F57"/>
<path d="M489.835 331.44L450.861 330.562L450.683 337.84L489.656 338.72L489.835 331.44Z" fill="#708CD5"/>
<path d="M548.79 348.648L450.47 346.432L450.292 353.71C488.332 354.564 536.764 356.272 546.647 354.819C548.147 353.186 548.956 351.18 548.79 348.648Z" fill="#D3DFFF"/>
<path d="M419.657 352.591L396.382 352.067L396.929 329.774L420.207 330.3L419.657 352.591Z" fill="white"/>
<path d="M419.657 352.591L419.674 351.889L397.132 351.381L397.645 330.492L419.457 330.984L418.924 352.575L419.657 352.591L420.39 352.608L420.957 329.615L396.216 329.056L395.632 352.75L420.373 353.31L420.39 352.608L419.657 352.591Z" fill="#708CD5"/>
<path d="M400.714 335.972C401.432 338.607 402.759 349.643 408.53 346.556C409.859 345.845 410.988 343.964 411.983 342.883C413.771 340.936 415.562 338.989 417.351 337.044C420.93 333.153 424.51 329.261 428.089 325.37C429.005 324.371 424.957 321.869 423.804 323.121C420.622 326.582 417.441 330.041 414.26 333.499C412.669 335.231 411.079 336.96 409.488 338.689C408.384 339.89 405.83 343.76 404.193 344.104C405.085 344.38 405.975 344.656 406.866 344.93C407.494 345.426 406.326 341.918 406.3 341.825C405.855 340.196 405.41 338.568 404.968 336.941C404.601 335.596 400.169 333.979 400.714 335.972Z" fill="#EE6F57"/>
<path d="M525.317 91.6999V113.949H431.981V91.6999C431.981 88.1525 433.487 84.942 435.91 82.6114C436.213 82.3212 436.526 82.0497 436.858 81.797C439.175 79.9531 442.155 78.8486 445.4 78.8486C447.834 78.8486 450.17 78.3151 452.261 77.351C453.17 76.9298 454.03 76.4337 454.841 75.8628C457.509 73.9721 459.552 71.2857 460.568 68.0846C461.604 64.818 463.725 62.0849 466.472 60.1848C469.11 58.3689 472.326 57.3206 475.737 57.3206H481.562C484.972 57.3206 488.188 58.3689 490.827 60.1848C493.573 62.0849 495.694 64.818 496.73 68.0846C497.746 71.2857 499.789 73.9721 502.457 75.8628C503.268 76.4337 504.128 76.9298 505.037 77.351C507.129 78.3151 509.464 78.8486 511.898 78.8486C515.143 78.8486 518.124 79.9531 520.44 81.797C523.421 84.1464 525.317 87.7125 525.317 91.6999Z" fill="#EE6F57"/>
<path d="M532.891 103.025V119.565H424.407V103.025H431.981V113.949H525.317V103.025H532.891Z" fill="#E4E4E4"/>
<path d="M486.929 70.6562C486.929 74.8191 483.223 78.1934 478.651 78.1934C474.077 78.1934 470.371 74.8191 470.371 70.6562C470.371 66.4957 474.077 63.1214 478.651 63.1214C483.223 63.1214 486.929 66.4957 486.929 70.6562Z" fill="white"/>
<path d="M299.778 174.819C296.467 174.218 293.374 168.922 292.298 166.891C292.035 166.393 291.952 165.829 292.059 165.279L293.378 158.591C293.378 158.591 296.418 159.085 296.183 162.962C296.159 163.365 296.244 163.767 296.393 164.144L297.559 167.06L300.999 164.509L299.113 159.405C299.113 159.405 296.587 160.07 295.282 159.672C292.606 158.853 296.115 156.855 297.224 156.642C298.336 156.429 300.777 155.58 301.886 157.386C302.998 159.193 303.662 160.257 303.662 160.257C303.662 160.257 304.884 156.216 304.051 147.181C304.014 146.774 305.077 146.783 305.375 147.076C306.269 147.946 307.694 150.598 307.77 158.661C307.77 158.661 307.919 149.264 309.6 148.297C310.988 147.5 311.689 152.1 310.711 159.899C310.711 159.899 312.522 153.146 313.819 153.134C316.006 153.113 313.846 171.171 308.349 176.553L299.778 174.819Z" fill="#F9B384"/>
<path d="M310.157 172.055C310.059 172.954 309.951 173.825 309.834 174.667V174.676C309.443 177.671 308.954 180.348 308.388 182.642C308.358 182.754 308.339 182.857 308.309 182.96C306.638 189.521 306.335 192.732 300.628 191.871L294.754 185.468L294.695 185.403L294.265 184.935L295.458 181.565L295.614 181.125L296.493 178.673L296.601 178.355L298.106 174.133L298.712 172.421L310.157 172.055Z" fill="#F9B384"/>
<path d="M201.035 405.18L199.539 409.657C189.288 412.881 183.308 416.576 182.925 420.889H212.571L214.947 405.903C208.943 407.307 204.131 406.332 201.035 405.18Z" fill="#1F3C88"/>
<path d="M204.752 394.056L201.035 405.18C204.132 406.332 208.943 407.307 214.947 405.903L216.48 396.239L204.752 394.056Z" fill="#F9B384"/>
<path d="M255.436 404.684L256.306 393.354L242.379 394.056L241.619 404.502C247.515 406.301 252.389 405.597 255.436 404.684Z" fill="#F9B384"/>
<path d="M272.188 420.889C271.804 416.576 266.568 410.67 255.084 409.266L255.436 404.684C252.389 405.597 247.515 406.301 241.619 404.502L240.425 420.889H272.188Z" fill="#1F3C88"/>
<path d="M244.148 177.728L227.348 177.84V153.504H243.64L243.65 154.992L243.728 162.705L243.845 175.088L244.148 177.728Z" fill="#F9B384"/>
<path d="M243.728 163.875C240.708 166.917 232.831 163.482 229.508 160.131L243.65 156.162L243.728 163.875Z" fill="#E28B6D"/>
<path d="M247.627 147.888C247.617 149.685 247.5 151.566 247.187 153.364C246.366 158.268 244.197 162.508 239.193 162.639C227.368 162.967 223.996 156.49 221.768 151.192C219.539 145.885 223.155 133.127 223.155 133.127L238.46 131.676L246.865 138.275C246.865 138.275 247.676 142.759 247.627 147.888Z" fill="#F9B384"/>
<path d="M222.244 148.157C222.244 148.157 225.618 148.01 226.194 139.67C232.227 141.603 236.636 139.841 240.129 135.991C243.109 139.761 251.453 140.943 254.27 133.223C256.306 127.647 250.686 119.34 242.501 124.371C234.48 120.489 222.313 120.756 218.811 130.277C218.811 130.277 206.639 135.652 219.528 147.486C219.786 147.722 222.244 148.157 222.244 148.157Z" fill="#102048"/>
<path d="M268.769 265.192L259.482 399.672H237.656L243.113 269.177L246.452 267.696L268.769 265.192Z" fill="#102048"/>
<path d="M211.919 246.793L196.607 399.672H220.389L243.031 272.687L268.767 265.199L269.908 238.055L212.571 236.808L211.919 246.793Z" fill="#1F3C88"/>
<path d="M263.905 237.924H263.893L263.88 237.877L263.905 237.924Z" fill="#6C758D"/>
<path d="M230.257 248.798C230.567 247.429 230.855 246.063 231.122 244.705C231.398 244.708 231.674 244.71 231.949 244.71C233.128 244.71 234.302 244.68 235.47 244.624C239.203 244.455 242.868 244.006 246.386 243.341C252.279 242.246 257.811 240.589 262.668 238.699C263.108 238.54 263.538 238.362 263.958 238.193L263.892 237.924H263.904L265.126 240.269C260.657 244.661 244.148 248.496 230.257 248.798Z" fill="#162B62"/>
<path d="M263.958 238.193C263.538 238.362 263.108 238.54 262.668 238.699C257.811 240.589 252.279 242.246 246.386 243.341C242.868 244.006 239.203 244.455 235.47 244.624C229.84 244.895 224.054 244.539 218.327 243.294L225.608 178.28L226.498 170.352C226.498 170.352 236.027 181.584 246.532 169.182L263.958 238.193Z" fill="white"/>
<path d="M231.949 244.71C231.674 244.71 231.398 244.708 231.122 244.706C235.662 221.605 234.129 199.979 229.865 178.937C235.672 195.268 240.712 224.645 235.47 244.624C234.302 244.68 233.128 244.71 231.949 244.71Z" fill="#BBC4DB"/>
<path d="M227.353 167.778C234.592 197.215 237.571 227.506 226.905 261.144C218.995 264.025 210.384 263.992 201.169 261.455L203.449 200.304L149.777 235.638L146.52 216.373C167.151 197.477 202.824 168.936 227.353 167.778Z" fill="#708CD5"/>
<path d="M246.386 243.341C243.151 225.576 242.438 196.392 245.066 183.222L262.668 238.699C257.811 240.589 252.279 242.246 246.386 243.341Z" fill="#BBC4DB"/>
<path d="M302.279 192.009C301.786 192.009 301.239 191.962 300.628 191.871L294.754 185.468L294.695 185.403L295.458 181.565L295.614 181.125L296.494 178.673L296.601 178.355L308.388 182.642C308.358 182.754 308.339 182.857 308.31 182.96C306.817 188.819 306.416 192.009 302.279 192.009Z" fill="#EB9B76"/>
<path d="M307.371 188.604C307.371 188.604 292.956 217.854 284.404 218.556C276.114 219.237 272.187 211.536 272.187 211.536L278.051 254.283C271.161 257.372 263.646 258.879 254.918 257.4C247.168 233.298 244.239 202.134 243.662 167.427C249.936 167.801 262.363 168.314 266.812 171.054C274.795 175.968 284.648 193.518 284.648 193.518L296.132 178.542L307.371 188.604Z" fill="#708CD5"/>
<path d="M131.633 147.39C131.633 147.39 132.506 133.399 133.993 134.059C135.48 134.719 138.462 146.884 138.462 146.884L135.273 151.815L131.633 147.39Z" fill="#6F3428"/>
<path d="M175.505 400.063L175.937 404.668C176.699 412.797 170.436 419.981 161.947 420.711L160.711 420.816C152.223 421.546 144.723 415.549 143.96 407.42L143.528 402.815L175.505 400.063Z" fill="#EE6F57"/>
<path d="M154.586 177.07L175.505 400.063L143.528 402.815L122.609 179.82L154.586 177.07Z" fill="#FBC343"/>
<path d="M131.942 179.017L131.435 173.614L144.739 172.47L145.246 177.873L143.299 178.041L142.967 174.501L133.557 175.31L133.889 178.851L131.942 179.017Z" fill="#D4C2BE"/>
<path d="M149.947 370.939L131.943 179.017L133.889 178.851L151.719 368.906L161.128 368.096L143.299 178.041L145.246 177.873L163.163 368.861L163.25 369.795L149.947 370.939Z" fill="#D1983B"/>
<path d="M175.5 400.065L143.532 402.817L142.691 393.831L142.105 387.588L140.297 368.4L172.275 365.648L174.074 384.836L174.66 391.08L175.5 400.065Z" fill="#102048"/>
<path d="M174.66 391.08L142.691 393.831L142.105 387.588L174.074 384.836L174.66 391.08Z" fill="#FBC343"/>
<path d="M122.605 179.822L131.487 145.728C131.487 145.728 134.553 147.032 138.272 144.832L154.584 177.07L122.605 179.822Z" fill="#EE6F57"/>
<path d="M224.013 146.746C223.87 146.243 221.484 145.553 220.958 145.415C220.146 145.199 219.259 145.094 218.466 145.436C215.58 146.685 215.966 150.642 217.461 152.722C218.308 153.899 219.548 154.807 220.99 155.203C221.514 155.346 226.479 155.404 226.261 154.639L224.013 146.746Z" fill="#F9B384"/>
<path d="M133.162 226.278C132.412 224.022 129.945 222.759 127.609 223.531C123.972 224.734 120.803 226.774 120.312 230.247C119.866 233.408 121.517 243.505 128.891 244.804L128.289 239.614C128.289 239.614 132.804 238.605 133.707 236.731C134.339 235.42 134.381 229.942 133.162 226.278Z" fill="#F9B384"/>
<path d="M269.935 191.548C270.323 193.757 270.653 195.973 270.968 198.191C271.298 200.407 271.557 202.632 271.855 204.853L272.612 211.527C272.832 213.757 273.05 215.984 273.191 218.224L272.813 218.266C272.412 216.057 272.087 213.839 271.765 211.623L270.892 204.961C270.648 202.733 270.365 200.512 270.15 198.282C269.922 196.055 269.71 193.825 269.556 191.59L269.935 191.548Z" fill="#1F3C88"/>
<path d="M204.21 191.187C204.204 193.668 204.141 196.148 204.064 198.626C203.999 201.104 203.865 203.582 203.769 206.058L203.346 213.485C203.173 215.961 202.995 218.434 202.744 220.905L202.362 220.887C202.355 218.406 202.422 215.926 202.493 213.448L202.802 206.016C202.95 203.54 203.061 201.062 203.24 198.589C203.408 196.115 203.589 193.64 203.828 191.169L204.21 191.187Z" fill="#1F3C88"/>
<path d="M235.874 146.514C236.081 147.397 235.701 148.23 235.026 148.375C234.351 148.52 233.637 147.921 233.431 147.039C233.224 146.156 233.604 145.323 234.278 145.178C234.953 145.033 235.668 145.632 235.874 146.514Z" fill="#102048"/>
<path d="M245.616 145.424C245.575 146.327 244.983 147.036 244.292 147.008C243.601 146.98 243.074 146.227 243.114 145.321C243.154 144.418 243.746 143.709 244.436 143.737C245.128 143.765 245.655 144.518 245.616 145.424Z" fill="#102048"/>
<path d="M240.184 146.163C240.519 146.938 240.466 147.771 240.683 148.405C240.793 148.726 240.945 149.009 241.156 149.184C241.352 149.355 241.67 149.465 242.073 149.615C242.488 149.769 242.929 150.043 243.231 150.453C243.55 150.848 243.638 151.534 243.349 151.983C243.089 152.432 242.715 152.68 242.394 152.907C242.059 153.125 241.736 153.354 241.388 153.558L241.137 153.282C241.393 152.98 241.675 152.704 241.945 152.416C242.223 152.14 242.478 151.873 242.576 151.627C242.783 151.194 242.34 150.719 241.698 150.476C241.368 150.331 240.891 150.205 240.507 149.828C240.136 149.465 239.953 149.013 239.88 148.59C239.718 147.722 239.903 146.98 239.815 146.259L240.184 146.163Z" fill="#E28B6D"/>
<path d="M231.211 144.144C231.355 143.589 231.709 143.063 232.209 142.686C232.701 142.293 233.344 142.082 233.981 142.05C235.264 141.975 236.535 142.674 237.062 143.709L236.763 143.936C235.914 143.297 234.98 142.948 234.027 142.981C233.073 143.004 232.206 143.475 231.558 144.298L231.211 144.144Z" fill="#102048"/>
<path d="M241.298 142.997C241.443 142.564 241.697 142.153 242.066 141.816C242.426 141.469 242.93 141.24 243.453 141.158C244.502 140.992 245.631 141.502 246.044 142.396L245.738 142.616C245.052 142.174 244.303 141.986 243.596 142.08C243.243 142.125 242.907 142.251 242.576 142.438C242.25 142.632 241.952 142.897 241.628 143.185L241.298 142.997Z" fill="#102048"/>
<path d="M235.892 155.229C237.599 157.786 239.872 158.065 241.628 155.374L235.892 155.229Z" fill="white"/>
<path d="M247.539 150.387C247.595 149.547 247.622 148.709 247.627 147.888C247.629 147.682 247.629 147.476 247.629 147.27C247.644 147.268 247.659 147.266 247.673 147.263C247.668 148.183 247.622 149.287 247.539 150.387Z" fill="#FECFC9"/>
<path d="M247.187 153.364C246.005 152.999 245.145 151.941 245.145 150.677C245.145 149.278 246.251 147.516 247.629 147.27C247.629 147.476 247.629 147.682 247.627 147.888C247.622 148.709 247.595 149.547 247.539 150.387C247.458 151.428 247.344 152.463 247.192 153.336C247.192 153.345 247.19 153.354 247.187 153.364Z" fill="#FAA280"/>
<path d="M231.726 155.367C229.985 155.367 228.574 154.016 228.574 152.35C228.574 150.682 229.985 149.332 231.726 149.332C233.467 149.332 234.878 150.682 234.878 152.35C234.878 154.016 233.467 155.367 231.726 155.367Z" fill="#FAA280"/>
<path d="M221.947 149.753C221.325 149.348 220.754 148.906 220.185 148.641C219.904 148.51 219.642 148.431 219.408 148.45C219.172 148.466 218.9 148.597 218.595 148.805L218.274 148.606C218.407 148.234 218.688 147.815 219.203 147.652C219.714 147.481 220.233 147.619 220.617 147.808C221.395 148.216 221.928 148.815 222.252 149.533L221.947 149.753Z" fill="#E28B6D"/>
<path d="M129.171 249.931L128.717 244.935L129.183 249.898L129.171 249.931Z" fill="#A9857E"/>
<path d="M129.183 249.898L128.717 244.935L128.702 244.769C128.765 244.78 128.827 244.792 128.891 244.804L128.289 239.614C128.289 239.614 128.448 239.579 128.711 239.508C129.462 239.328 130.115 239.111 130.691 238.863C131.924 238.376 133.259 237.66 133.707 236.731L129.183 249.898Z" fill="#A76D33"/>
<path d="M128.891 244.804C128.827 244.792 128.765 244.78 128.702 244.769L128.234 239.616C128.397 239.581 128.556 239.546 128.711 239.508C128.448 239.579 128.289 239.614 128.289 239.614L128.891 244.804ZM130.691 238.863C132.047 238.28 132.97 237.536 133.707 236.731C133.259 237.66 131.924 238.376 130.691 238.863Z" fill="#A6674D"/>
<path d="M58.744 421.909H690.561V420.037H58.744V421.909Z" fill="#102048"/>
</svg>
